<svg width="350" height="254" viewBox="0 0 350 254" fill="none" xmlns="http://www.w3.org/2000/svg">
<path d="M266.033 244.264C305.105 260.098 317.83 256.522 311.358 210.574C305.02 191.257 297.946 176.807 289.079 165C300.654 157.324 301.412 151.7 295.225 139.932C315.401 132.625 330.736 125.733 349 110.272C346.419 100.988 341.205 97.8551 329.795 93.4269C288.495 100.397 267.894 107.689 231.464 121.11C229.955 120.312 228.419 119.507 226.854 118.694C179.757 97.1742 150.377 84.4374 109.318 69.477C115.4 66.3058 117.243 64.0014 120.073 59.7375C122.813 56.2418 122.122 54.4499 120.073 51.3151C103.837 50.8108 96.5724 52.037 84.7351 55.1435V60.7664L83.1987 60.2639C80.9153 43.2531 79.2752 33.814 73.9801 17.6257C63.8834 7.62007 57.4677 4.5889 45.5563 0.78096L47.0927 48.4558L37.106 45.1898C29.9364 49.1642 27.0713 52.2242 24.8146 59.7375C26.2364 62.4577 28.0269 65.2683 29.9571 68C18.0428 67.3425 11.6708 67.5585 1 71.2225C8.58667 77.6172 12.8505 81.1928 24.8146 83.4732C32.4082 85.3905 36.1469 84.8836 42.6492 83.4732C44.4228 85.3933 45.5563 86.5359 45.5563 86.5359C80.8913 116.338 105.514 139.414 129.291 159.562C83.0375 174.362 56.7438 182.165 14.8278 202.918C25.7968 212.614 33.062 216.94 48.6292 222.059C76.0185 216.956 96.3143 212.397 117 206.902C127.317 216.726 134.889 218.707 149.265 220.528C163.742 218.726 161.363 209.528 159.252 194.786C162.825 193.711 166.51 192.594 170.332 191.433C195.092 208.666 224.134 225.176 266.033 244.264Z" fill="black"/>
<path d="M129.291 159.562C105.514 139.414 80.8913 116.338 45.5563 86.5359C45.5563 86.5359 44.4228 85.3933 42.6492 83.4732M129.291 159.562C83.0375 174.362 56.7438 182.165 14.8278 202.918C25.7969 212.614 33.062 216.94 48.6292 222.059C76.0185 216.956 96.3143 212.397 117 206.902M129.291 159.562C142.655 170.886 155.751 181.285 170.332 191.433M170.332 191.433C195.092 208.666 224.134 225.176 266.033 244.264C305.105 260.098 317.83 256.522 311.358 210.574C305.02 191.257 297.946 176.807 289.079 165M170.332 191.433C166.51 192.594 162.825 193.711 159.252 194.786M272.928 147.789C261.819 138.2 248.349 130.047 231.464 121.11M272.928 147.789C281.105 144.895 288.439 142.39 295.225 139.932M272.928 147.789C278.95 152.987 284.278 158.606 289.079 165M231.464 121.11C229.955 120.312 228.419 119.507 226.854 118.694C179.757 97.1742 150.377 84.4374 109.318 69.477M231.464 121.11C267.894 107.689 288.495 100.397 329.795 93.4269C341.205 97.8551 346.419 100.988 349 110.272C330.736 125.733 315.401 132.625 295.225 139.932M29.9571 68C18.0428 67.3425 11.6708 67.5585 1 71.2225C8.58667 77.6172 12.8505 81.1928 24.8146 83.4732C32.4082 85.3905 36.1469 84.8836 42.6492 83.4732M42.6492 83.4732C38.1381 78.5895 29.4864 68.6755 24.8146 59.7375C27.0713 52.2242 29.9364 49.1642 37.106 45.1898L47.0927 48.4558M84.7351 60.7664L86.2715 61.2688C94.4275 64.1151 102.055 66.8308 109.318 69.477M84.7351 60.7664V55.1435C96.5724 52.037 103.837 50.8108 120.073 51.3151C122.122 54.4499 122.813 56.2418 120.073 59.7375C117.243 64.0014 115.4 66.3058 109.318 69.477M84.7351 60.7664L83.1987 60.2639M117 206.902C124.511 204.907 132.074 202.788 140.046 200.475C146.154 198.703 152.502 196.818 159.252 194.786M117 206.902C127.317 216.726 134.889 218.707 149.265 220.528C163.742 218.726 161.363 209.528 159.252 194.786M295.225 139.932C301.412 151.7 300.654 157.324 289.079 165M83.1987 60.2639C80.9153 43.2531 79.2752 33.814 73.9801 17.6257C63.8834 7.62007 57.4677 4.5889 45.5563 0.78096L47.0927 48.4558M83.1987 60.2639L47.0927 48.4558" stroke="black"/>
</svg>
