<svg width="225" height="225" viewBox="0 0 225 225" fill="none" xmlns="http://www.w3.org/2000/svg">
<g clip-path="url(#clip0_0_1)">
<path d="M79 222V140.5H45.5C37.6073 111.833 36.7097 98.1531 32.0506 71.7858C32 67 35.5 67 35.5 67H69.5L61.5 29.5C61.9891 26.5541 62.6891 25.6441 64.5 25H107V10.5L96 9.5C92.8185 9.42337 91.9082 8.57155 92.5 5C92.4086 1.23082 93.1813 0.146927 96 0H128C131.542 0.331862 132.609 1.27017 132 5C132.206 7.69689 132.205 9.14746 128 9.5L117.5 10.5V25H159.5C162.155 26.3456 162.98 27.5126 163 30.5L155.192 66.9965C178.265 66.5741 194.467 65.5176 192.5 71.5C188.675 94.0147 188.319 97.4391 180.5 140.5H145.5V222C145.921 224.483 145.251 225.239 142.5 225.5H83C79.9622 225.19 79.2897 224.278 79 222Z" fill="white"/>
<path d="M155 67C155.064 66.9988 155.128 66.9977 155.192 66.9965M32 71.5C32.0169 71.5954 32.0338 71.6907 32.0506 71.7858M32.0506 71.7858C36.7097 98.1531 37.6073 111.833 45.5 140.5H79V222C79.2897 224.278 79.9622 225.19 83 225.5H142.5C145.251 225.239 145.921 224.483 145.5 222V140.5H180.5C188.319 97.4391 188.675 94.0147 192.5 71.5C194.467 65.5176 178.265 66.5741 155.192 66.9965M32.0506 71.7858C32 67 35.5 67 35.5 67H69.5L61.5 29.5C61.9891 26.5541 62.6891 25.6441 64.5 25H107V10.5L96 9.5C92.8185 9.42337 91.9082 8.57155 92.5 5C92.4086 1.23082 93.1813 0.146927 96 0H128C131.542 0.331862 132.609 1.27017 132 5C132.206 7.69689 132.205 9.14746 128 9.5L117.5 10.5V25H159.5C162.155 26.3456 162.98 27.5126 163 30.5L155.192 66.9965" stroke="black"/>
<path d="M46 95.5L43 77.5H69V96.5L46 95.5Z" fill="black"/>
<path d="M79 95.5V77.5H107.5V96.5L79 95.5Z" fill="black"/>
<path d="M117.5 77.5V96.5H145.5V77.5H117.5Z" fill="black"/>
<path d="M155.5 77.5V96.5H179L182 77.5H155.5Z" fill="black"/>
<path d="M139 47.5V35.5H152L149.5 47.5H139Z" fill="black"/>
<path d="M117 35L129 35.5V47.5H117V35Z" fill="black"/>
<path d="M96 47.5V35H108.5L108 47.5H96Z" fill="black"/>
<path d="M76 47L73 35H86V47H76Z" fill="black"/>
</g>
<defs>
<clipPath id="clip0_0_1">
<rect width="225" height="225" fill="white"/>
</clipPath>
</defs>
</svg>
